<svg xmlns="http://www.w3.org/2000/svg" xmlns:xlink="http://www.w3.org/1999/xlink" id="processonSvg1000" viewBox="126.0 396.5 667.0 105.0" width="667.0" height="105.0"><defs id="ProcessOnDefs1001"><marker id="ProcessOnMarker1012" markerUnits="userSpaceOnUse" orient="auto" markerWidth="16.23606797749979" markerHeight="10.550836550532098" viewBox="-1.0 -1.3763819204711736 16.23606797749979 10.550836550532098" refX="-1.0" refY="3.8990363547948754"><path id="ProcessOnPath1013" d="M12.0 3.8990363547948754L0.0 7.798072709589751V0.0Z" stroke="#323232" stroke-width="2.0" fill="#323232" transform="matrix(1.0,0.0,0.0,1.0,0.0,0.0)"/></marker><marker id="ProcessOnMarker1020" markerUnits="userSpaceOnUse" orient="auto" markerWidth="16.23606797749979" markerHeight="10.550836550532098" viewBox="-1.0 -1.3763819204711736 16.23606797749979 10.550836550532098" refX="-1.0" refY="3.8990363547948754"><path id="ProcessOnPath1021" d="M12.0 3.8990363547948754L0.0 7.798072709589751V0.0Z" stroke="#323232" stroke-width="2.0" fill="#323232" transform="matrix(1.0,0.0,0.0,1.0,0.0,0.0)"/></marker><marker id="ProcessOnMarker1034" markerUnits="userSpaceOnUse" orient="auto" markerWidth="16.23606797749979" markerHeight="10.550836550532098" viewBox="-1.0 -1.3763819204711736 16.23606797749979 10.550836550532098" refX="-1.0" refY="3.8990363547948754"><path id="ProcessOnPath1035" d="M12.0 3.8990363547948754L0.0 7.798072709589751V0.0Z" stroke="#323232" stroke-width="2.0" fill="#323232" transform="matrix(1.0,0.0,0.0,1.0,0.0,0.0)"/></marker><marker id="ProcessOnMarker1038" markerUnits="userSpaceOnUse" orient="auto" markerWidth="16.23606797749979" markerHeight="10.550836550532098" viewBox="-1.0 -1.3763819204711736 16.23606797749979 10.550836550532098" refX="-1.0" refY="3.8990363547948754"><path id="ProcessOnPath1039" d="M12.0 3.8990363547948754L0.0 7.798072709589751V0.0Z" stroke="#323232" stroke-width="2.0" fill="#323232" transform="matrix(1.0,0.0,0.0,1.0,0.0,0.0)"/></marker></defs><g id="ProcessOnG1002"><path id="ProcessOnPath1003" d="M126.0 396.5H793.0V501.5H126.0V396.5Z" fill="none"/><g id="ProcessOnG1004"><g id="ProcessOnG1005" transform="matrix(1.0,0.0,0.0,1.0,146.0,424.0)" opacity="1.0"><path id="ProcessOnPath1006" d="M16.666666666666668 0.0L69.33333333333333 0.0C91.55555555555556 0.0 91.55555555555556 50.0 69.33333333333333 50.0L16.666666666666668 50.0C-5.555555555555556 50.0 -5.555555555555556 0.0 16.666666666666668 0.0Z" stroke="#323232" stroke-width="2.0" stroke-dasharray="none" opacity="1.0" fill="#ffcccc"/><g id="ProcessOnG1007" transform="matrix(1.0,0.0,0.0,1.0,10.0,8.75)"><text id="ProcessOnText1008" fill="#006633" font-size="13" x="32.0" y="13.325" font-family="微软雅黑" font-weight="bold" font-style="normal" text-decoration="none" family="微软雅黑" text-anchor="middle" size="13">给客人初</text><text id="ProcessOnText1009" fill="#006633" font-size="13" x="32.0" y="29.575" font-family="微软雅黑" font-weight="bold" font-style="normal" text-decoration="none" family="微软雅黑" text-anchor="middle" size="13">稿</text></g></g><g id="ProcessOnG1010"><path id="ProcessOnPath1011" d="M232.0 449.0L256.5 449.0L256.5 449.0L265.7639320225002 449.0" stroke="#323232" stroke-width="2.0" stroke-dasharray="none" fill="none" marker-end="url(#ProcessOnMarker1012)"/></g><g id="ProcessOnG1014" transform="matrix(1.0,0.0,0.0,1.0,414.0,423.5)" opacity="1.0"><path id="ProcessOnPath1015" d="M0.0 21.75L21.75 0.0L87.0 0.0L87.0 51.0L0.0 51.0L0.0 21.75Z" stroke="#323232" stroke-width="2.0" stroke-dasharray="none" opacity="1.0" fill="#66b2ff"/><g id="ProcessOnG1016" transform="matrix(1.0,0.0,0.0,1.0,10.0,17.375)"><text id="ProcessOnText1017" fill="#ff00ff" font-size="13" x="32.5" y="13.325" font-family="微软雅黑" font-weight="bold" font-style="normal" text-decoration="none" family="微软雅黑" text-anchor="middle" size="13">送翻译</text></g></g><g id="ProcessOnG1018"><path id="ProcessOnPath1019" d="M501.0 449.0L526.5 449.0L526.5 449.0L536.7639320225002 449.0" stroke="#323232" stroke-width="2.0" stroke-dasharray="none" fill="none" marker-end="url(#ProcessOnMarker1020)"/></g><g id="ProcessOnG1022" transform="matrix(1.0,0.0,0.0,1.0,552.0,417.0)" opacity="1.0"><path id="ProcessOnPath1023" d="M0.0 32.0L42.0 0.0L84.0 32.0L42.0 64.0L0.0 32.0Z" stroke="#323232" stroke-width="2.0" stroke-dasharray="none" opacity="1.0" fill="#ff99ff"/><g id="ProcessOnG1024" transform="matrix(1.0,0.0,0.0,1.0,10.0,15.75)"><text id="ProcessOnText1025" fill="#0000cc" font-size="13" x="31.0" y="13.325" font-family="微软雅黑" font-weight="bold" font-style="normal" text-decoration="none" family="微软雅黑" text-anchor="middle" size="13">客人最后</text><text id="ProcessOnText1026" fill="#0000cc" font-size="13" x="31.0" y="29.575" font-family="微软雅黑" font-weight="bold" font-style="normal" text-decoration="none" family="微软雅黑" text-anchor="middle" size="13">确认</text></g></g><g id="ProcessOnG1027" transform="matrix(1.0,0.0,0.0,1.0,286.0,416.5)" opacity="1.0"><path id="ProcessOnPath1028" d="M71.0 0.0L71.0 32.5C71.0 75.83333333333333 0.0 75.83333333333333 0.0 32.5Q0.0 0.0 35.5 0.0L35.5 0.0L71.0 0.0Z" stroke="#323232" stroke-width="2.0" stroke-dasharray="none" opacity="1.0" fill="#ccffe6"/><g id="ProcessOnG1029" transform="matrix(1.0,0.0,0.0,1.0,10.0,16.25)"><text id="ProcessOnText1030" fill="#ff3399" font-size="13" x="24.5" y="13.325" font-family="微软雅黑" font-weight="bold" font-style="normal" text-decoration="none" family="微软雅黑" text-anchor="middle" size="13">WMT</text><text id="ProcessOnText1031" fill="#ff3399" font-size="13" x="24.5" y="29.575" font-family="微软雅黑" font-weight="bold" font-style="normal" text-decoration="none" family="微软雅黑" text-anchor="middle" size="13">确认</text></g></g><g id="ProcessOnG1032"><path id="ProcessOnPath1033" d="M357.0 449.0L383.5 449.0L383.5 449.0L394.7639320225002 449.0" stroke="#323232" stroke-width="2.0" stroke-dasharray="none" fill="none" marker-end="url(#ProcessOnMarker1034)"/></g><g id="ProcessOnG1036"><path id="ProcessOnPath1037" d="M636.0 449.0L657.5 449.0L657.5 449.0L663.7639320225002 449.0" stroke="#323232" stroke-width="2.0" stroke-dasharray="none" fill="none" marker-end="url(#ProcessOnMarker1038)"/></g><g id="ProcessOnG1040" transform="matrix(1.0,0.0,0.0,1.0,680.0,422.5)" opacity="1.0"><path id="ProcessOnPath1041" d="M13.95 0.0L84.16666666666667 0.0C95.4090909090909 0.0 95.4090909090909 53.0 84.16666666666667 53.0L13.95 53.0C-4.65 53.0 -4.65 0.0 13.95 0.0ZM84.16666666666667 0.0C73.125 0.0 73.125 53.0 84.16666666666667 53.0C73.125 53.0 73.125 0.0 84.16666666666667 0.0" stroke="#323232" stroke-width="2.0" stroke-dasharray="none" opacity="1.0" fill="#ff0000"/><g id="ProcessOnG1042" transform="matrix(1.0,0.0,0.0,1.0,0.0,18.375)"><text id="ProcessOnText1043" fill="#ffffff" font-size="13" x="36.2" y="13.325" font-family="微软雅黑" font-weight="bold" font-style="normal" text-decoration="none" family="微软雅黑" text-anchor="middle" size="13">最终稿</text></g></g></g></g></svg>