<svg xmlns="http://www.w3.org/2000/svg" xmlns:xlink="http://www.w3.org/1999/xlink" id="processonSvg1000" viewBox="102.0 271.0 598.0 630.0" width="598.0" height="630.0"><defs id="ProcessOnDefs1001"><marker id="ProcessOnMarker1021" markerUnits="userSpaceOnUse" orient="auto" markerWidth="16.23606797749979" markerHeight="10.550836550532098" viewBox="-1.0 -1.3763819204711736 16.23606797749979 10.550836550532098" refX="-1.0" refY="3.8990363547948754"><path id="ProcessOnPath1022" d="M12.0 3.8990363547948754L0.0 7.798072709589751V0.0Z" stroke="#323232" stroke-width="2.0" fill="#323232" transform="matrix(1.0,0.0,0.0,1.0,0.0,0.0)"/></marker><marker id="ProcessOnMarker1029" markerUnits="userSpaceOnUse" orient="auto" markerWidth="16.23606797749979" markerHeight="10.550836550532098" viewBox="-1.0 -1.3763819204711736 16.23606797749979 10.550836550532098" refX="-1.0" refY="3.8990363547948754"><path id="ProcessOnPath1030" d="M12.0 3.8990363547948754L0.0 7.798072709589751V0.0Z" stroke="#323232" stroke-width="2.0" fill="#323232" transform="matrix(1.0,0.0,0.0,1.0,0.0,0.0)"/></marker><marker id="ProcessOnMarker1033" markerUnits="userSpaceOnUse" orient="auto" markerWidth="16.23606797749979" markerHeight="10.550836550532098" viewBox="-1.0 -1.3763819204711736 16.23606797749979 10.550836550532098" refX="-1.0" refY="3.8990363547948754"><path id="ProcessOnPath1034" d="M12.0 3.8990363547948754L0.0 7.798072709589751V0.0Z" stroke="#323232" stroke-width="2.0" fill="#323232" transform="matrix(1.0,0.0,0.0,1.0,0.0,0.0)"/></marker><marker id="ProcessOnMarker1040" markerUnits="userSpaceOnUse" orient="auto" markerWidth="16.23606797749979" markerHeight="10.550836550532098" viewBox="-1.0 -1.3763819204711736 16.23606797749979 10.550836550532098" refX="-1.0" refY="3.8990363547948754"><path id="ProcessOnPath1041" d="M12.0 3.8990363547948754L0.0 7.798072709589751V0.0Z" stroke="#323232" stroke-width="2.0" fill="#323232" transform="matrix(1.0,0.0,0.0,1.0,0.0,0.0)"/></marker><marker id="ProcessOnMarker1058" markerUnits="userSpaceOnUse" orient="auto" markerWidth="16.23606797749979" markerHeight="10.550836550532098" viewBox="-1.0 -1.3763819204711736 16.23606797749979 10.550836550532098" refX="-1.0" refY="3.8990363547948754"><path id="ProcessOnPath1059" d="M12.0 3.8990363547948754L0.0 7.798072709589751V0.0Z" stroke="#323232" stroke-width="2.0" fill="#323232" transform="matrix(1.0,0.0,0.0,1.0,0.0,0.0)"/></marker><marker id="ProcessOnMarker1069" markerUnits="userSpaceOnUse" orient="auto" markerWidth="16.23606797749979" markerHeight="10.550836550532098" viewBox="-1.0 -1.3763819204711736 16.23606797749979 10.550836550532098" refX="-1.0" refY="3.8990363547948754"><path id="ProcessOnPath1070" d="M12.0 3.8990363547948754L0.0 7.798072709589751V0.0Z" stroke="#323232" stroke-width="2.0" fill="#323232" transform="matrix(1.0,0.0,0.0,1.0,0.0,0.0)"/></marker><marker id="ProcessOnMarker1083" markerUnits="userSpaceOnUse" orient="auto" markerWidth="16.23606797749979" markerHeight="10.550836550532098" viewBox="-1.0 -1.3763819204711736 16.23606797749979 10.550836550532098" refX="-1.0" refY="3.8990363547948754"><path id="ProcessOnPath1084" d="M12.0 3.8990363547948754L0.0 7.798072709589751V0.0Z" stroke="#323232" stroke-width="2.0" fill="#323232" transform="matrix(1.0,0.0,0.0,1.0,0.0,0.0)"/></marker></defs><g id="ProcessOnG1002"><path id="ProcessOnPath1003" d="M102.0 271.0H700.0V901.0H102.0V271.0Z" fill="none"/><g id="ProcessOnG1004"><g id="ProcessOnG1005" transform="matrix(1.0,0.0,0.0,1.0,307.0,408.0)" opacity="1.0"><path id="ProcessOnPath1006" d="M0.0 0.0L100.0 0.0L100.0 70.0L0.0 70.0Z" stroke="#323232" stroke-width="2.0" stroke-dasharray="none" opacity="1.0" fill="#ff99cc"/><g id="ProcessOnG1007" transform="matrix(1.0,0.0,0.0,1.0,10.0,18.75)"><text id="ProcessOnText1008" fill="#000099" font-size="13" x="39.0" y="13.325" font-family="微软雅黑" font-weight="bold" font-style="normal" text-decoration="none" family="微软雅黑" text-anchor="middle" size="13">Rosemary</text><text id="ProcessOnText1009" fill="#000099" font-size="13" x="39.0" y="29.575" font-family="微软雅黑" font-weight="bold" font-style="normal" text-decoration="none" family="微软雅黑" text-anchor="middle" size="13">Louise</text></g></g><g id="ProcessOnG1010" transform="matrix(1.0,0.0,0.0,1.0,125.0,301.0)" opacity="1.0"><path id="ProcessOnPath1011" d="M16.666666666666668 0.0L83.33333333333333 0.0C105.55555555555556 0.0 105.55555555555556 50.0 83.33333333333333 50.0L16.666666666666668 50.0C-5.555555555555556 50.0 -5.555555555555556 0.0 16.666666666666668 0.0Z" stroke="#323232" stroke-width="2.0" stroke-dasharray="none" opacity="1.0" fill="#ccffff"/><g id="ProcessOnG1012" transform="matrix(1.0,0.0,0.0,1.0,10.0,8.75)"><text id="ProcessOnText1013" fill="#00cc00" font-size="13" x="39.0" y="13.325" font-family="微软雅黑" font-weight="bold" font-style="normal" text-decoration="none" family="微软雅黑" text-anchor="middle" size="13">VAL, EA, OZ, </text><text id="ProcessOnText1014" fill="#00cc00" font-size="13" x="39.0" y="29.575" font-family="微软雅黑" font-weight="bold" font-style="normal" text-decoration="none" family="微软雅黑" text-anchor="middle" size="13">MSB</text></g></g><g id="ProcessOnG1015" transform="matrix(1.0,0.0,0.0,1.0,122.0,418.0)" opacity="1.0"><path id="ProcessOnPath1016" d="M16.666666666666668 0.0L83.33333333333333 0.0C105.55555555555556 0.0 105.55555555555556 50.0 83.33333333333333 50.0L16.666666666666668 50.0C-5.555555555555556 50.0 -5.555555555555556 0.0 16.666666666666668 0.0Z" stroke="#323232" stroke-width="2.0" stroke-dasharray="none" opacity="1.0" fill="#ffccff"/><g id="ProcessOnG1017" transform="matrix(1.0,0.0,0.0,1.0,10.0,16.875)"><text id="ProcessOnText1018" fill="#0000cc" font-size="13" x="39.0" y="13.325" font-family="微软雅黑" font-weight="bold" font-style="normal" text-decoration="none" family="微软雅黑" text-anchor="middle" size="13">MOV等其他</text></g></g><g id="ProcessOnG1019"><path id="ProcessOnPath1020" d="M225.0 326.0L262.5 326.0L262.5 326.0L284.7639320225002 326.0" stroke="#323232" stroke-width="2.0" stroke-dasharray="none" fill="none" marker-end="url(#ProcessOnMarker1021)"/></g><g id="ProcessOnG1023" transform="matrix(1.0,0.0,0.0,1.0,307.0,291.0)" opacity="1.0"><path id="ProcessOnPath1024" d="M0.0 0.0L100.0 0.0L100.0 70.0L0.0 70.0Z" stroke="#323232" stroke-width="2.0" stroke-dasharray="none" opacity="1.0" fill="#ccffff"/><g id="ProcessOnG1025" transform="matrix(1.0,0.0,0.0,1.0,10.0,26.875)"><text id="ProcessOnText1026" fill="#00cc00" font-size="13" x="39.0" y="13.325" font-family="微软雅黑" font-weight="bold" font-style="normal" text-decoration="none" family="微软雅黑" text-anchor="middle" size="13">Rosemary</text></g></g><g id="ProcessOnG1027"><path id="ProcessOnPath1028" d="M222.0 443.0L261.5 443.0L261.5 443.0L285.7639320225002 443.0" stroke="#323232" stroke-width="2.0" stroke-dasharray="none" fill="none" marker-end="url(#ProcessOnMarker1029)"/></g><g id="ProcessOnG1031"><path id="ProcessOnPath1032" d="M407.0 326.0L508.5 326.0L508.5 383.0L594.7639320225002 383.0" stroke="#323232" stroke-width="2.0" stroke-dasharray="none" fill="none" marker-end="url(#ProcessOnMarker1033)"/><g id="ProcessOnG1035" transform="matrix(1.0,0.0,0.0,1.0,508.5,338.7569660112501)"><path id="ProcessOnPath1036" d="M0 0H17.0V16.25H0Z" fill="#fff" transform="matrix(1.0,0.0,0.0,1.0,-8.5,0.0)"/><text id="ProcessOnText1037" fill="#000000" font-size="13" x="0.0" y="13.325" font-family="微软雅黑" font-weight="bold" font-style="normal" text-decoration="none" family="微软雅黑" text-anchor="middle" size="13">ok</text></g></g><g id="ProcessOnG1038"><path id="ProcessOnPath1039" d="M407.0 443.0L508.5 443.0L508.5 383.0L594.7639320225002 383.0" stroke="#323232" stroke-width="2.0" stroke-dasharray="none" fill="none" marker-end="url(#ProcessOnMarker1040)"/><g id="ProcessOnG1042" transform="matrix(1.0,0.0,0.0,1.0,508.5,412.4930339887499)"><path id="ProcessOnPath1043" d="M0 0H17.0V16.25H0Z" fill="#fff" transform="matrix(1.0,0.0,0.0,1.0,-8.5,0.0)"/><text id="ProcessOnText1044" fill="#000000" font-size="13" x="0.0" y="13.325" font-family="微软雅黑" font-weight="bold" font-style="normal" text-decoration="none" family="微软雅黑" text-anchor="middle" size="13">ok</text></g></g><g id="ProcessOnG1045" transform="matrix(1.0,0.0,0.0,1.0,610.0,348.0)" opacity="1.0"><path id="ProcessOnPath1046" d="M70.0 0.0L70.0 35.0C70.0 81.66666666666667 0.0 81.66666666666667 0.0 35.0Q0.0 0.0 35.0 0.0L35.0 0.0L70.0 0.0Z" stroke="#323232" stroke-width="2.0" stroke-dasharray="none" opacity="1.0" fill="#00cc66"/><g id="ProcessOnG1047" transform="matrix(1.0,0.0,0.0,1.0,10.0,2.5)"><text id="ProcessOnText1048" fill="#cc00cc" font-size="13" x="24.0" y="13.325" font-family="微软雅黑" font-weight="bold" font-style="normal" text-decoration="none" family="微软雅黑" text-anchor="middle" size="13">ps</text><text id="ProcessOnText1049" fill="#cc00cc" font-size="13" x="24.0" y="29.575" font-family="微软雅黑" font-weight="bold" font-style="normal" text-decoration="none" family="微软雅黑" text-anchor="middle" size="13">buyer</text><text id="ProcessOnText1050" fill="#cc00cc" font-size="13" x="24.0" y="45.825" font-family="微软雅黑" font-weight="bold" font-style="normal" text-decoration="none" family="微软雅黑" text-anchor="middle" size="13">pd</text><text id="ProcessOnText1051" fill="#cc00cc" font-size="13" x="24.0" y="62.075" font-family="微软雅黑" font-weight="bold" font-style="normal" text-decoration="none" family="微软雅黑" text-anchor="middle" size="13">客人</text></g></g><g id="ProcessOnG1052" transform="matrix(1.0,0.0,0.0,1.0,513.0,351.0)" opacity="1.0"><path id="ProcessOnPath1053" d="M0.0 0.0L91.0 0.0L91.0 29.0L0.0 29.0Z" stroke="none" stroke-width="0.0" stroke-dasharray="none" opacity="1.0" fill="none"/><g id="ProcessOnG1054" transform="matrix(1.0,0.0,0.0,1.0,0.0,6.375)"><text id="ProcessOnText1055" fill="#ff0000" font-size="13" x="44.5" y="13.325" font-family="微软雅黑" font-weight="normal" font-style="normal" text-decoration="none" family="微软雅黑" text-anchor="middle" size="13">去掉 Louise</text></g></g><g id="ProcessOnG1056"><path id="ProcessOnPath1057" d="M645.0 418.0L645.0 554.0L410.2360679774998 554.0" stroke="#323232" stroke-width="2.0" stroke-dasharray="none" fill="none" marker-end="url(#ProcessOnMarker1058)"/><g id="ProcessOnG1060" transform="matrix(1.0,0.0,0.0,1.0,595.6180339887499,545.875)"><path id="ProcessOnPath1061" d="M0 0H17.0V16.25H0Z" fill="#fff" transform="matrix(1.0,0.0,0.0,1.0,-8.5,0.0)"/><text id="ProcessOnText1062" fill="#000000" font-size="13" x="0.0" y="13.325" font-family="微软雅黑" font-weight="bold" font-style="normal" text-decoration="none" family="微软雅黑" text-anchor="middle" size="13">ok</text></g></g><g id="ProcessOnG1063" transform="matrix(1.0,0.0,0.0,1.0,275.0,514.0)" opacity="1.0"><path id="ProcessOnPath1064" d="M0.0 40.0L60.0 0.0L120.0 40.0L60.0 80.0Z" stroke="#323232" stroke-width="2.0" stroke-dasharray="none" opacity="1.0" fill="#ffe6cc"/><g id="ProcessOnG1065" transform="matrix(1.0,0.0,0.0,1.0,10.0,32.275)"><text id="ProcessOnText1066" fill="#cc00cc" font-size="13" x="49.0" y="13.325" font-family="微软雅黑" font-weight="normal" font-style="normal" text-decoration="none" family="微软雅黑" text-anchor="middle" size="13">送翻译</text></g></g><g id="ProcessOnG1067"><path id="ProcessOnPath1068" d="M335.0 594.0L335.0 631.0L335.0 631.0L335.0 652.7639320225002" stroke="#323232" stroke-width="2.0" stroke-dasharray="none" fill="none" marker-end="url(#ProcessOnMarker1069)"/><g id="ProcessOnG1071" transform="matrix(1.0,0.0,0.0,1.0,335.0,615.2569660112501)"><path id="ProcessOnPath1072" d="M0 0H17.0V16.25H0Z" fill="#fff" transform="matrix(1.0,0.0,0.0,1.0,-8.5,0.0)"/><text id="ProcessOnText1073" fill="#000000" font-size="13" x="0.0" y="13.325" font-family="微软雅黑" font-weight="bold" font-style="normal" text-decoration="none" family="微软雅黑" text-anchor="middle" size="13">ok</text></g></g><g id="ProcessOnG1074" transform="matrix(1.0,0.0,0.0,1.0,300.0,668.0)" opacity="1.0"><path id="ProcessOnPath1075" d="M70.0 0.0L70.0 35.0C70.0 81.66666666666667 0.0 81.66666666666667 0.0 35.0Q0.0 0.0 35.0 0.0L35.0 0.0L70.0 0.0Z" stroke="#323232" stroke-width="2.0" stroke-dasharray="none" opacity="1.0" fill="#00cc66"/><g id="ProcessOnG1076" transform="matrix(1.0,0.0,0.0,1.0,10.0,2.5)"><text id="ProcessOnText1077" fill="#cc00cc" font-size="13" x="24.0" y="13.325" font-family="微软雅黑" font-weight="bold" font-style="normal" text-decoration="none" family="微软雅黑" text-anchor="middle" size="13">ps</text><text id="ProcessOnText1078" fill="#cc00cc" font-size="13" x="24.0" y="29.575" font-family="微软雅黑" font-weight="bold" font-style="normal" text-decoration="none" family="微软雅黑" text-anchor="middle" size="13">buyer</text><text id="ProcessOnText1079" fill="#cc00cc" font-size="13" x="24.0" y="45.825" font-family="微软雅黑" font-weight="bold" font-style="normal" text-decoration="none" family="微软雅黑" text-anchor="middle" size="13">pd</text><text id="ProcessOnText1080" fill="#cc00cc" font-size="13" x="24.0" y="62.075" font-family="微软雅黑" font-weight="bold" font-style="normal" text-decoration="none" family="微软雅黑" text-anchor="middle" size="13">客人</text></g></g><g id="ProcessOnG1081"><path id="ProcessOnPath1082" d="M335.0 738.0L335.0 774.5L335.0 774.5L335.0 795.7639320225002" stroke="#323232" stroke-width="2.0" stroke-dasharray="none" fill="none" marker-end="url(#ProcessOnMarker1083)"/><g id="ProcessOnG1085" transform="matrix(1.0,0.0,0.0,1.0,335.0,758.7569660112501)"><path id="ProcessOnPath1086" d="M0 0H17.0V16.25H0Z" fill="#fff" transform="matrix(1.0,0.0,0.0,1.0,-8.5,0.0)"/><text id="ProcessOnText1087" fill="#000000" font-size="13" x="0.0" y="13.325" font-family="微软雅黑" font-weight="bold" font-style="normal" text-decoration="none" family="微软雅黑" text-anchor="middle" size="13">ok</text></g></g><g id="ProcessOnG1088" transform="matrix(1.0,0.0,0.0,1.0,285.0,811.0)" opacity="1.0"><path id="ProcessOnPath1089" d="M15.0 0.0L88.33333333333333 0.0C103.18181818181819 0.0 103.18181818181819 70.0 88.33333333333333 70.0L15.0 70.0C-5.0 70.0 -5.0 0.0 15.0 0.0ZM88.33333333333333 0.0C73.75 0.0 73.75 70.0 88.33333333333333 70.0C73.75 70.0 73.75 0.0 88.33333333333333 0.0" stroke="#323232" stroke-width="2.0" stroke-dasharray="none" opacity="1.0" fill="#ff0000"/><g id="ProcessOnG1090" transform="matrix(1.0,0.0,0.0,1.0,0.0,26.875)"><text id="ProcessOnText1091" fill="#ffffff" font-size="13" x="39.0" y="13.325" font-family="微软雅黑" font-weight="bold" font-style="normal" text-decoration="none" family="微软雅黑" text-anchor="middle" size="13">最终稿</text></g></g></g></g></svg>